<?xml version="1.0" standalone="no"?><!DOCTYPE svg PUBLIC "-//W3C//DTD SVG 1.1//EN" "http://www.w3.org/Graphics/SVG/1.1/DTD/svg11.dtd"><svg t="1749868073606" class="icon" viewBox="0 0 1024 1024" version="1.1" xmlns="http://www.w3.org/2000/svg" p-id="2074" xmlns:xlink="http://www.w3.org/1999/xlink" width="128" height="128"><path d="M853.333333 405.333333a64 64 0 0 1 64-64V106.666667h-85.333333a85.333333 85.333333 0 0 1-170.666667 0H106.666667v128a64 64 0 0 1 0 128v213.333333a106.666667 106.666667 0 0 1 0 213.333333v128h810.666666V469.333333a64 64 0 0 1-64-64z" fill="#FFC107" p-id="2075"></path><path d="M341.333333 341.333333m-106.666666 0a106.666667 106.666667 0 1 0 213.333333 0 106.666667 106.666667 0 1 0-213.333333 0Z" fill="#ED9500" p-id="2076"></path><path d="M704 661.333333m-85.333333 0a85.333333 85.333333 0 1 0 170.666666 0 85.333333 85.333333 0 1 0-170.666666 0Z" fill="#ED9500" p-id="2077"></path><path d="M640 405.333333m-42.666667 0a42.666667 42.666667 0 1 0 85.333334 0 42.666667 42.666667 0 1 0-85.333334 0Z" fill="#ED9500" p-id="2078"></path><path d="M469.333333 789.333333m-42.666666 0a42.666667 42.666667 0 1 0 85.333333 0 42.666667 42.666667 0 1 0-85.333333 0Z" fill="#ED9500" p-id="2079"></path></svg>